<?xml version="1.0" encoding="utf-8"?>
<!-- Generator: Adobe Illustrator 17.1.0, SVG Export Plug-In . SVG Version: 6.00 Build 0)  -->
<!DOCTYPE svg PUBLIC "-//W3C//DTD SVG 1.1//EN" "http://www.w3.org/Graphics/SVG/1.1/DTD/svg11.dtd">
<svg version="1.1" id="Layer_1" xmlns="http://www.w3.org/2000/svg" xmlns:xlink="http://www.w3.org/1999/xlink" x="0px" y="0px"
	 viewBox="0 363.3 390.5 295" enable-background="new 0 363.3 390.5 295" xml:space="preserve">
<g id="Layer_1_1_">
</g>
<g id="Layer_4" display="none">
	<path display="inline" fill="#FFCC00" d="M1112.8,464.8c-7,3-8.3,3-14.8,6.9c-5.5,3.3-6.8,9.8-3.9,15.3c2.6,4.9,9.7,9.3,15.2,6
		c6.5-3.9,7.9-3.9,14.8-6.9c5.9-2.5,6.5-10.3,3.9-15.3C1125.1,465.3,1118.7,462.2,1112.8,464.8z"/>
	<path display="inline" fill="#FFCC00" d="M1126.9,454.4c-0.8,0.2-1.6,0.7-2.1,1.4c-0.3,0.1-0.6,0.2-0.9,0.5c-0.6,0.5-0.8,1-0.9,1.7
		c-0.2,0.9,0.1,2,0.7,2.6c0.9,0.9,1.9,1.2,3.1,1.1c0.8,0,1.6-0.4,2.3-0.9c0.9-0.6,1.3-1.5,1.6-2.5
		C1131.2,456.1,1129.1,453.8,1126.9,454.4z"/>
	<path display="inline" fill="#FFCC00" d="M1136.3,466.2c-0.2,0-0.4,0-0.6,0c-1.6-0.3-3,0.3-3.9,1.6c-0.5,0.1-1,0.4-1.4,0.9
		c-0.7,1-0.6,2.8,0.6,3.5c1.4,0.8,2.8,0.6,4.2,0.1c1.1-0.4,2.3-1.1,2.9-2.1c0.5-0.8,0.6-1.6,0.3-2.5
		C1138,466.8,1137.2,466.2,1136.3,466.2z"/>
	<path display="inline" fill="#FFCC00" d="M1136.5,478.1c-1,0.3-1.8,1.2-2.2,2.1c-0.4,0.3-0.7,0.6-0.8,1.1c-0.2,0.6-0.2,1.3,0.1,1.9
		c0.4,1,1.7,1.7,2.8,1.4h0.1c0.3,0,0.5,0,0.8,0s0.6,0,0.9,0c1.3-0.2,2.4-1.1,3-2.2c0.7-1.4,0-3-1.2-3.8
		C1138.9,477.8,1137.7,477.7,1136.5,478.1z"/>
	<path display="inline" fill="#FFCC00" d="M738.3,441.1c5.6,5.1,3.9,3.8,10.1,8.2c5.2,3.7,11.7,2.2,15.5-2.7
		c3.4-4.4,4.5-12.7-0.8-16.4c-6.2-4.4-4.5-3.1-10.1-8.2c-4.7-4.3-12.1-1.7-15.5,2.7C733.7,429.6,733.6,436.7,738.3,441.1z"/>
	<path display="inline" fill="#FFCC00" d="M723.1,432.4c0.6,0.7,1.3,1.2,2.1,1.3c0.2,0.2,0.5,0.4,0.8,0.6c0.7,0.3,1.2,0.3,1.9,0.1
		c0.9-0.2,1.8-0.9,2.1-1.7c0.5-1.2,0.3-2.2-0.3-3.3c-0.4-0.7-1-1.3-1.7-1.7c-0.9-0.6-1.9-0.6-2.9-0.4
		C722.9,427.8,721.6,430.7,723.1,432.4z"/>
	<path display="inline" fill="#FFCC00" d="M729.9,419c0.1,0.2,0.1,0.3,0.2,0.5c0.3,1.6,1.5,2.6,3.1,2.9c0.3,0.4,0.8,0.8,1.4,0.9
		c1.2,0.3,2.8-0.6,3-1.9c0.2-1.6-0.6-2.8-1.7-3.9c-0.8-0.8-2-1.6-3.1-1.8c-0.9-0.1-1.8,0.1-2.4,0.8
		C729.8,417.2,729.6,418.2,729.9,419z"/>
	<path display="inline" fill="#FFCC00" d="M740.8,414c0.7,0.8,1.8,1.1,2.8,1.1c0.4,0.2,0.8,0.4,1.3,0.3c0.7,0,1.3-0.3,1.7-0.8
		c0.7-0.8,0.9-2.3,0.2-3.2v-0.1c-0.1-0.2-0.2-0.5-0.3-0.7c-0.1-0.3-0.2-0.6-0.4-0.8c-0.7-1.1-2-1.7-3.3-1.8c-1.5-0.1-2.7,1.2-3,2.6
		C739.5,411.9,739.9,413.1,740.8,414z"/>
</g>
<g>
	<g id="Layer_6">
		<g>
			<g>
				<polygon fill="#CCCCCC" points="330,399.7 20.8,384.6 19.4,414.4 320.8,449.9 				"/>
			</g>
		</g>
	</g>
	<g id="Layer_2">
		<g opacity="0.7">
			
				<ellipse transform="matrix(-8.652623e-03 -1 1 -8.652623e-03 -531.0067 672.9098)" fill="#FFCC00" cx="68.1" cy="599.7" rx="17.6" ry="9.8"/>
		</g>
		<g opacity="0.7">
			
				<ellipse transform="matrix(-8.652623e-03 -1 1 -8.652623e-03 -379.9196 888.8975)" fill="#FFCC00" cx="250.7" cy="632.8" rx="25.5" ry="13.2"/>
		</g>
		<g>
			<g>
				<polygon fill="#FFCC00" points="18.6,421.5 9.2,580.9 296.5,629.7 319.9,457.1 				"/>
			</g>
		</g>
		<path fill="#FFFFFF" d="M79.2,415.9H79c-7.1,0.1-13.7,2.9-18.7,7.9c-5,5.1-7.7,11.8-7.6,18.9c0.1,14.5,12,26.3,26.6,26.3h0.2
			c14.7-0.1,26.5-12.2,26.3-26.8C105.7,427.7,93.8,415.9,79.2,415.9z"/>
		<g>
			<g>
				<polygon points="316.9,413.1 225.4,399.5 222.3,417.8 309.6,443.9 				"/>
			</g>
		</g>
		<g>
			<g>
				<circle fill="#FFFFFF" cx="210.5" cy="485.9" r="82.3"/>
				<path d="M210.5,575.7c-23.8,0-46.3-9.2-63.2-26s-26.4-39.2-26.6-63c-0.2-24,8.9-46.6,25.8-63.7c16.8-17.1,39.3-26.6,63.3-26.9
					h0.8c23.8,0,46.3,9.2,63.2,26s26.4,39.2,26.6,63c0.4,49.5-39.5,90.2-89,90.6H210.5z M210.5,411.1h-0.7
					c-20,0.2-38.7,8.1-52.7,22.4s-21.6,33.1-21.5,53.1c0.4,40.9,33.9,74.2,74.8,74.2h0.7c41.2-0.4,74.5-34.2,74.2-75.5
					C284.9,444.4,251.4,411.1,210.5,411.1z"/>
			</g>
		</g>
		<g>
			<path d="M210.5,553.3c-36.8,0-67-30-67.4-66.8c-0.3-37.1,29.6-67.6,66.8-68h0.6c36.8,0,67,30,67.4,66.8c0.2,18-6.7,35-19.3,47.8
				c-12.6,12.8-29.5,20-47.5,20.1L210.5,553.3z M210.5,423.5h-0.6c-34.4,0.3-62.1,28.5-61.8,62.9c0.3,34.1,28.3,61.8,62.4,61.8h0.6
				c16.7-0.1,32.3-6.8,43.9-18.7c11.6-11.9,18-27.6,17.9-44.3C272.5,451.3,244.6,423.5,210.5,423.5z"/>
		</g>
		<g>
			<path d="M79.2,476.8c-18.7,0-34.1-15.2-34.3-34c-0.2-18.9,15.1-34.4,34-34.6h0.3c18.7,0,34.1,15.2,34.3,34
				c0.2,18.9-15.1,34.4-34,34.6H79.2z M79.2,418.2H79c-6.5,0.1-12.6,2.6-17.1,7.3c-4.5,4.6-7,10.7-7,17.2
				c0.1,13.3,11,24.1,24.3,24.1h0.2c13.4-0.1,24.2-11.1,24.1-24.5C103.4,429,92.5,418.2,79.2,418.2z"/>
		</g>
		<g>
			<g>
				<circle cx="210.5" cy="485.9" r="10.2"/>
			</g>
		</g>
		<g>
			<g>
				<circle cx="79.2" cy="442.5" r="7.1"/>
			</g>
		</g>
		<g>
			<path d="M221.6,595.9c-20.4,0-40.8-2.4-60.8-7.1c-57.1-13.5-84.5-41.9-97.4-63.4c-4-6.6-5.2-15.2,0.8-19.6
				c2.2-1.6,5.2-1.1,6.8,1.1s1.1,5.2-1.1,6.8c-0.5,0.3-0.3,3.4,1.8,6.8c12,19.9,37.5,46.2,91.3,58.9c29.4,6.9,59.5,8.6,89.5,5
				c0.2-1.2,0.8-2.3,1.8-3.1c2.1-1.7,5.1-1.3,6.8,0.8c1.5,1.8,1.8,4.2,0.9,6.4c-1.3,3.2-4.9,5.1-7.7,5.4
				C243.3,595.2,232.4,595.9,221.6,595.9z"/>
		</g>
		<g>
			
				<rect x="49.8" y="364.1" transform="matrix(-0.9992 -3.900769e-02 3.900769e-02 -0.9992 128.9096 748.9831)" fill="#FFFFFF" width="43.9" height="18.2"/>
		</g>
	</g>
	<g id="Layer_5">
		<g>
			<path fill="#FFCC00" d="M358.7,544.3c-2.4-5.3-6.2-9.5-11.2-11.8c-3.8-2.1-8.2-2.9-12.4-1.6c-4,0.9-7.7,3.6-10.1,6.6
				c-3.3,4.1-4.1,8.9-4.2,14c-0.1,7.9,5.9,15.1,12.6,18.5c4.9,2.5,11.1,1.8,15.6-1.1c0.7-0.5,1.4-1,2-1.5
				C359.1,563,362.6,553.1,358.7,544.3z"/>
		</g>
		<g>
			<path fill="#FFCC00" d="M357.8,519.9c1.1-3.2,1.6-6.9,3.6-9.7c3.6-5.3-4-11.8-7.6-6.5c-1.9,2.7-3.1,5.5-4,8.6
				c-1,3.3-1.7,6.8-3.9,9.5c-4.1,5,3.5,11.5,7.6,6.5C355.4,525.8,356.8,523,357.8,519.9z"/>
		</g>
		<g>
			<path fill="#FFCC00" d="M390.2,533.9c-0.8-2.3-4-4.2-6.4-3c-3.7,1.9-8.2,2.9-11,3.5c-3.4,0.7-7.4,1.2-9.8,4
				c-4.2,4.9,3.5,11.3,7.7,6.4c-1,1.2,0.6,0.1,1.4-0.1c1.1-0.3,2.3-0.5,3.5-0.7c4-0.8,8.1-1.8,11.7-3.7
				C389.6,539.1,391.2,536.7,390.2,533.9z"/>
		</g>
		<g>
			<path fill="#FFCC00" d="M383.5,563.3c1-2.3,0.1-5.8-2.5-6.6c-4-1.2-8-2.3-12.1-3.2c-6.3-1.3-7.9,8.6-1.6,9.9
				c3.3,0.7,6.5,1.5,9.7,2.4C379.5,566.6,382.3,566,383.5,563.3z"/>
		</g>
		<g opacity="0.7">
			<path fill="#FFCC00" d="M4,530c-2.5-2.9-4-6.3-4-9.9c-0.2-2.8,0.5-5.7,2.4-7.8c1.6-2.1,4.2-3.6,6.7-4.2c3.4-0.8,6.4,0,9.5,1.3
				c4.8,2.1,7.4,7.7,7.6,12.6c0.1,3.6-2,7.2-4.9,9c-0.5,0.3-1,0.6-1.5,0.8C15.1,535.3,8.2,534.7,4,530z"/>
		</g>
	</g>
</g>
</svg>
