<svg width="16" height="16" xmlns="http://www.w3.org/2000/svg" xmlns:xlink="http://www.w3.org/1999/xlink"><defs><path d="M15.814 6.545H8.186v3.091h4.39c-.409 1.964-2.12 3.091-4.39 3.091-2.679 0-4.837-2.109-4.837-4.727 0-2.618 2.158-4.727 4.837-4.727A4.8 4.8 0 0 1 11.2 4.327L13.581 2a8.258 8.258 0 0 0-5.395-2C3.646 0 0 3.564 0 8s3.647 8 8.186 8C12.279 16 16 13.09 16 8c0-.473-.074-.982-.186-1.455z" id="a"/><path d="M15.814 6.545H8.186v3.091h4.39c-.409 1.964-2.12 3.091-4.39 3.091-2.679 0-4.837-2.109-4.837-4.727 0-2.618 2.158-4.727 4.837-4.727A4.8 4.8 0 0 1 11.2 4.327L13.581 2a8.258 8.258 0 0 0-5.395-2C3.646 0 0 3.564 0 8s3.647 8 8.186 8C12.279 16 16 13.09 16 8c0-.473-.074-.982-.186-1.455z" id="c"/><path d="M15.814 6.545H8.186v3.091h4.39c-.409 1.964-2.12 3.091-4.39 3.091-2.679 0-4.837-2.109-4.837-4.727 0-2.618 2.158-4.727 4.837-4.727A4.8 4.8 0 0 1 11.2 4.327L13.581 2a8.258 8.258 0 0 0-5.395-2C3.646 0 0 3.564 0 8s3.647 8 8.186 8C12.279 16 16 13.09 16 8c0-.473-.074-.982-.186-1.455z" id="e"/><path d="M15.814 6.545H8.186v3.091h4.39c-.409 1.964-2.12 3.091-4.39 3.091-2.679 0-4.837-2.109-4.837-4.727 0-2.618 2.158-4.727 4.837-4.727A4.8 4.8 0 0 1 11.2 4.327L13.581 2a8.258 8.258 0 0 0-5.395-2C3.646 0 0 3.564 0 8s3.647 8 8.186 8C12.279 16 16 13.09 16 8c0-.473-.074-.982-.186-1.455z" id="g"/></defs><g fill="none" fill-rule="evenodd"><mask id="b" fill="#fff"><use xlink:href="#a"/></mask><path fill="#FBBC05" mask="url(#b)" d="M-1 13.455V4l6.326 4.727z"/><mask id="d" fill="#fff"><use xlink:href="#c"/></mask><path fill="#EA4335" mask="url(#d)" d="M-1 4l6.326 4.727L7.93 6.51l8.93-1.418V0H-1z"/><mask id="f" fill="#fff"><use xlink:href="#e"/></mask><path fill="#34A853" mask="url(#f)" d="M-1 13.455L10.163 5.09l2.94.364L16.86 0v17.455H-1z"/><mask id="h" fill="#fff"><use xlink:href="#g"/></mask><path fill="#4285F4" mask="url(#h)" d="M17.023 17.455L5.488 8.727 4 7.637 17.023 4z"/></g></svg>