<?xml version="1.0" encoding="utf-8"?>
<!-- Generator: Adobe Illustrator 17.1.0, SVG Export Plug-In . SVG Version: 6.00 Build 0)  -->
<!DOCTYPE svg PUBLIC "-//W3C//DTD SVG 1.0//EN" "http://www.w3.org/TR/2001/REC-SVG-20010904/DTD/svg10.dtd">
<svg version="1.0" id="Layer_1" xmlns="http://www.w3.org/2000/svg" xmlns:xlink="http://www.w3.org/1999/xlink" x="0px" y="0px"
	 viewBox="0 0 216.7 255.7" enable-background="new 0 0 216.7 255.7" xml:space="preserve">
<g>
	<path id="path14499" fill="#003087" d="M184.5,19.3C172.6,5.8,151.2,0,123.9,0H44.4C38.8,0,34,4.1,33.2,9.6L0.1,219.4
		c-0.7,4.1,2.5,7.9,6.7,7.9h49.1l12.3-78.1l-0.4,2.4c0.9-5.5,5.6-9.6,11.2-9.6h23.3c45.8,0,81.6-18.6,92.1-72.4
		c0.3-1.6,0.6-3.1,0.8-4.7c-1.3-0.7-1.3-0.7,0,0C198.4,45.1,195.2,31.5,184.5,19.3"/>
	<path id="path14527" fill="#003087" d="M184.5,19.3C172.6,5.8,151.2,0,123.9,0H44.4C38.8,0,34,4.1,33.2,9.6L0.1,219.4
		c-0.7,4.1,2.5,7.9,6.7,7.9h49.1l12.3-78.1l-0.4,2.4c0.9-5.5,5.6-9.6,11.2-9.6h23.3c45.8,0,81.6-18.6,92.1-72.4
		c0.3-1.6,0.6-3.1,0.8-4.7c-1.3-0.7-1.3-0.7,0,0C198.4,45.1,195.2,31.5,184.5,19.3"/>
	<path id="path14531" fill="#002F86" d="M81.4,65.2c0.5-3.3,2.7-6,5.5-7.4c1.3-0.6,2.8-1,4.3-1h62.3c7.4,0,14.3,0.5,20.5,1.5
		c1.8,0.3,3.6,0.6,5.2,1c1.7,0.4,3.3,0.8,4.9,1.3c0.8,0.2,1.6,0.5,2.4,0.7c3.1,1,6,2.2,8.6,3.6c3.1-19.9,0-33.4-10.8-45.7
		C172.6,5.8,151.2,0,123.9,0H44.4C38.8,0,34,4.1,33.2,9.6L0.1,219.4c-0.7,4.1,2.5,7.9,6.7,7.9h49.1l12.3-78.1L81.4,65.2L81.4,65.2z"
		/>
	<path id="path14535" fill="#009CDE" d="M195.2,65L195.2,65c-0.2,1.5-0.5,3.1-0.8,4.7C184,123.4,148.1,142,102.3,142H79
		c-5.6,0-10.3,4.1-11.2,9.6l-11.9,75.7l-3.4,21.5c-0.6,3.6,2.2,6.9,5.9,6.9h41.3c4.9,0,9.1-3.6,9.8-8.4l0.4-2.1l7.8-49.4l0.5-2.7
		c0.8-4.8,4.9-8.4,9.8-8.4h6.2c40.1,0,71.4-16.3,80.6-63.3c3.8-19.7,1.8-36.1-8.3-47.6C203.5,70.2,199.7,67.3,195.2,65"/>
	<path id="path14539" fill="#012069" d="M184.3,60.6c-1.6-0.5-3.2-0.9-4.9-1.3c-1.7-0.4-3.5-0.7-5.2-1c-6.3-1-13.2-1.5-20.6-1.5
		H91.3c-1.5,0-3,0.3-4.3,1c-2.9,1.4-5,4.1-5.5,7.4l-13.2,83.9l-0.4,2.4c0.9-5.5,5.6-9.6,11.2-9.6h23.3c45.8,0,81.6-18.6,92.1-72.4
		c0.3-1.6,0.6-3.1,0.8-4.7c-2.7-1.4-5.5-2.6-8.6-3.6C185.9,61.1,185.1,60.8,184.3,60.6"/>
</g>
</svg>
