<?xml version="1.0" encoding="utf-8"?>
<!-- Generator: Adobe Illustrator 19.0.0, SVG Export Plug-In . SVG Version: 6.00 Build 0)  -->
<svg version="1.1" id="Layer_1" xmlns="http://www.w3.org/2000/svg" xmlns:xlink="http://www.w3.org/1999/xlink" x="0px" y="0px"
	 viewBox="0 0 283 75" style="enable-background:new 0 0 283 75;" xml:space="preserve">
<g>
	<path d="M26.2,18.9H0.4V74h11.7V54.4h14c11.9,0,18.5-8.2,18.5-17.8C44.7,27,38.2,18.9,26.2,18.9z M24.6,44.1H12.2V29.3h12.5
		c4.6,0,8.1,2.8,8.1,7.4C32.7,41.2,29.3,44.1,24.6,44.1z"/>
	<rect id="XMLID_8_" x="52" y="18.9" width="11.7" height="55.1"/>
	<path id="XMLID_7_" d="M101.2,28.4c5.7,0,10.7,3.6,13,8l10.1-5c-3.9-6.9-10.9-13.5-23-13.5c-16.5,0-29.3,11.6-29.3,28.5
		c0,16.9,12.8,28.5,29.3,28.5c12.1,0,19.1-6.7,23-13.5l-10.1-4.9c-2.3,4.5-7.3,8-13,8c-10,0-17.3-7.7-17.3-18.1
		C84,36.1,91.3,28.4,101.2,28.4z"/>
	<path id="XMLID_6_" d="M141.3,33.9c0-3.3,2.8-5.5,7.8-5.5c5.6,0,11.6,1.9,16,6l6.5-8.6c-5.4-5-12.7-7.7-21.5-7.7
		c-13,0-20.9,7.6-20.9,16.8c0,20.7,31.7,14,31.7,23.8c0,3.1-3.1,6.1-9.6,6.1c-7.6,0-13.6-3.4-17.5-7.4l-6.4,8.9
		c5.1,5.2,12.7,8.8,23.3,8.8c14.9,0,22-7.6,22-17.7C172.9,36.8,141.3,42.6,141.3,33.9z"/>
	<path id="XMLID_5_" d="M185.9,61.5c-3.6,0-6.7,3.1-6.7,6.7c0,3.6,3.1,6.7,6.7,6.7c3.6,0,6.7-3.1,6.7-6.7
		C192.6,64.6,189.6,61.5,185.9,61.5z"/>
	<rect id="XMLID_4_" x="202" y="18.9" width="11.7" height="55.1"/>
	<path d="M250.7,18c-16.6,0-28.7,11.9-28.7,28.5c0,16.6,12.1,28.5,28.7,28.5c16.7,0,28.8-11.9,28.8-28.5
		C279.5,29.9,267.4,18,250.7,18z M250.7,64.6c-10.2,0-16.7-7.8-16.7-18.1c0-10.3,6.5-18.1,16.7-18.1c10.2,0,16.8,7.8,16.8,18.1
		C267.4,56.8,260.8,64.6,250.7,64.6z"/>
	<polygon id="XMLID_1_" points="271.2,7.2 260.8,0 237.8,0 227.4,7.2 202,7.2 202,14.6 229.4,14.6 239.8,7.4 258.9,7.4 269.3,14.6 
		282.6,14.6 282.6,7.2 	"/>
</g>
</svg>
