<svg xmlns="http://www.w3.org/2000/svg" width="20" height="20" viewBox="0 0 508.1 508.1"><path d="M33.8 216.251v270.6c0 11.7 9.5 21.2 21.2 21.2h398.1c11.7 0 21.2-9.5 21.2-21.2v-270.6H33.8z" fill="#ffd15c"/><path d="M377.9 14.551c-19-18.7-49.1-19.4-67.2-1.6-12.6 12.3-44.7 58.5-56.7 91.8-12-33.3-44.1-79.5-56.7-91.8-18.1-17.8-48.2-17.1-67.2 1.6s-19.8 48.3-1.7 66.1c17.9 17.5 104.9 73.6 125.6 57.2 20.7 16.4 107.7-39.7 125.6-57.2 18.1-17.8 17.3-47.4-1.7-66.1zm-226 43c-5.1-5-4.4-14 1.7-19.9 4.4-4.3 9.2-5 11.7-5 2.4 0 5.8.6 8.6 3.3 9.9 9.8 29 38.5 40.9 61.8-23.6-11.7-52.9-30.4-62.9-40.2zm204.2 0c-9.9 9.8-39.2 28.5-62.9 40.2 12-23.2 31-52 40.9-61.8 2.8-2.7 6.2-3.3 8.6-3.3 2.5 0 7.3.6 11.7 5 6 5.9 6.8 14.9 1.7 19.9z" fill="#f1543f"/><path d="M486.8 118.351H21.2c-11.7 0-21.2 9.5-21.2 21.2v55.4c0 11.7 9.5 21.2 21.2 21.2h465.7c11.7 0 21.2-9.5 21.2-21.2v-55.4c-.1-11.7-9.6-21.2-21.3-21.2z" fill="#f8b64c"/><path fill="#ff7058" d="M202.7 118.351h102.7v389.7H202.7z"/><path opacity=".2" fill="#c47920" d="M33.8 216.251h440.4v14.1H33.8z"/></svg>
