<svg width="26" height="25" xmlns="http://www.w3.org/2000/svg" xmlns:xlink="http://www.w3.org/1999/xlink"><defs><path id="a" d="M25.913 5.144V.291H0v4.853h25.913z"/></defs><g fill="none" fill-rule="evenodd"><path d="M15.486 21.53c-3.352 0-5.506-2.615-5.506-6.03 0-3.442 2.154-6.03 5.506-6.03 3.353 0 5.534 2.588 5.534 6.03 0 3.415-2.18 6.03-5.534 6.03m0-15.53C10.007 6 6 9.965 6 15.5s4.007 9.5 9.486 9.5C20.993 25 25 21.035 25 15.5S20.993 6 15.486 6" fill="#000"/><g><mask id="b" fill="#fff"><use xlink:href="#a"/></mask><path fill="#000" mask="url(#b)" d="M22.274 2.688L18.932.291h-7.417L8.174 2.688H0v2.456h8.808l3.342-2.397h6.147l3.342 2.397h4.274V2.688z"/></g><path fill="#000" d="M0 25h4V7H0z"/></g></svg>