<?xml version="1.0" standalone="no"?>
<!DOCTYPE svg PUBLIC "-//W3C//DTD SVG 1.1//EN" "http://www.w3.org/Graphics/SVG/1.1/DTD/svg11.dtd" >
<svg xmlns="http://www.w3.org/2000/svg">
<metadata>Generated by IcoMoon</metadata>
<defs>
<font id="editIcons" horiz-adv-x="1024">
<font-face units-per-em="1024" ascent="960" descent="-64" />
<missing-glyph horiz-adv-x="1024" />
<glyph unicode="&#x20;" horiz-adv-x="512" d="" />
<glyph unicode="&#xe101;" glyph-name="arrowUndo" horiz-adv-x="1014" d="M365.842 448l320 320h-61.86l-320-320 320-320h61.86z" />
<glyph unicode="&#xe102;" glyph-name="arrowRedo" horiz-adv-x="1018" d="M599.859 448l-208-208h58.24l208 208-208 208h-58.24z" />
<glyph unicode="&#xe103;" glyph-name="pipette" d="M651.852 625.245c-26.669 22.172-48.844 15.588-51.091 15.588h-2.248l-57.771-73.266-40.009 31.091-42.171-53.251 35.509-28.83-135.356-168.973 15.588-28.83-26.669-33.351 40.009-31.091 26.669 33.351 28.83-13.335 137.692 173.201 35.509-28.83 42.171 53.251-40.009 31.091 57.771 73.266v2.248c0.089 0 2.248 24.422-24.422 46.686zM436.487 303.16l-28.929 13.335-22.172-31.091-6.67 4.41 22.172 28.83-15.588 28.83 126.709 157.797 53.251-42.171-128.772-159.955z" />
<glyph unicode="&#xe104;" glyph-name="adjustments" d="M534.178 664v-21.6h172.8v-388.8h-172.8v-21.6h194.4v432zM318.178 642.4h172.8v21.6h-194.4v-432h194.4v21.6h-172.8zM575.218 448c0-34.601-28.039-62.64-62.64-62.64s-62.64 28.039-62.64 62.64c0 34.601 28.039 62.64 62.64 62.64s62.64-28.039 62.64-62.64z" />
<glyph unicode="&#xe105;" glyph-name="presets" d="M457.62 478.734l101.672 177.323c-16.557 2.361-33.102 4.722-47.282 4.722-52.013 0-96.937-16.557-134.763-49.646l80.393-132.402zM715.333 511.84c-18.919 61.479-66.201 113.483-127.68 134.763l-78.026-134.763h205.7zM720.067 490.56h-160.774l7.088-11.823 101.672-177.323c33.102 37.836 54.38 89.842 54.38 144.229 2.361 16.557 0 33.102-2.361 44.921v0zM436.341 448l-82.759 144.229c-33.102-37.836-54.38-89.842-54.38-144.229 0-14.19 2.361-30.734 4.722-42.56h160.774l-28.367 42.56zM308.667 384.16c18.919-61.479 66.201-113.483 127.68-134.763l78.026 134.763h-205.7zM547.469 384.16l-82.759-144.229c16.557-4.722 30.734-4.722 47.282-4.722 52.013 0 96.937 16.557 134.763 49.646l-78.026 134.763-21.28-35.469z" />
<glyph unicode="&#xe106;" glyph-name="about" d="M601.653 553.434c0-71.901-81.399-62.501-81.399-121.392v-20.301h-40.802v22.497c0 75.496 79.094 67.894 79.094 116.398 0 24.695-17.502 38.701-45.393 38.701-22.497 0-44.096-9.901-62.501-32.398l-28.302 21.998c25.597 30.103 56.193 44.495 93.501 44.495 56.593 0.1 85.796-34.095 85.796-69.998zM532.454 334.447c0-17.502-13.495-31.5-31.5-31.5-17.502 0-31.001 13.895-31.001 31.5 0 17.101 13.495 31.001 31.001 31.001 18.003 0 31.5-13.895 31.5-31.001z" />
<glyph unicode="&#xe107;" glyph-name="exit" d="M360.376 615.558l319.115-319.115-15.928-15.928-319.115 319.115 15.928 15.928zM679.553 599.557l-319.115-319.115-15.928 15.928 319.115 319.115 15.928-15.928z" />
<glyph unicode="&#xe201;" glyph-name="open" d="M694.583 557.555h-182.583v36.521h-182.583v-310.4h127.817v109.555h-63.91l118.68 118.68 118.68-118.68h-63.91v-109.555h127.817z" />
<glyph unicode="&#xe202;" glyph-name="download" d="M623.472 456.539h-70.942v121.6h-81.069v-121.6h-74.989l113.503-113.503zM309.322 314.657h405.347v-40.539h-405.347v40.539z" />
<glyph unicode="&#xe203;" glyph-name="saveAdj" d="M512 193.323l67.585 67.585h-135.158zM354.976 304.629h314.048c3.98 0 7.948 3.98 7.948 7.948v63.607c0 3.98-3.98 7.948-7.948 7.948h-314.048c-3.98 0-7.948-3.98-7.948-7.948v-63.607c1.984-5.962 3.98-7.948 7.948-7.948zM561.694 360.283h91.439v-35.772h-91.439v35.772zM354.976 489.488h314.048c3.98 0 7.948 3.98 7.948 7.948v63.607c0 3.98-3.98 7.948-7.948 7.948h-314.048c-3.98 0-7.948-3.98-7.948-7.948v-63.607c1.984-3.98 3.98-7.948 7.948-7.948zM561.694 547.13h91.439v-35.772h-91.439v35.772zM354.976 398.046h314.048c3.98 0 7.948 3.98 7.948 7.948v61.621c0 3.98-3.98 7.948-7.948 7.948h-314.048c-3.98 0-7.948-3.98-7.948-7.948v-63.607c1.984-3.98 3.98-5.962 7.948-5.962zM561.694 451.711h91.439v-35.772h-91.439v35.772z" />
<glyph unicode="&#xe204;" glyph-name="loadAdj" d="M512 672.716l-67.528-67.528h135.053zM355.107 287.436h313.782c3.97 0 7.94 3.97 7.94 7.94v63.558c0 3.97-3.97 7.94-7.94 7.94h-313.782c-3.97 0-7.94-3.97-7.94-7.94v-63.558c1.987-3.97 3.97-7.94 7.94-7.94zM561.644 343.050h91.348v-35.747h-91.348v35.747zM355.107 474.124h313.782c3.97 0 7.94 3.97 7.94 7.94v61.561c0 3.97-3.97 7.94-7.94 7.94h-313.782c-3.97 0-7.94-3.97-7.94-7.94v-63.558c1.987-1.987 3.97-5.96 7.94-5.96zM561.644 531.72h91.348v-35.747h-91.348v35.747zM355.107 380.784h313.782c3.97 0 7.94 3.97 7.94 7.94v63.558c0 3.97-3.97 7.94-7.94 7.94h-313.782c-3.97 0-7.94-3.97-7.94-7.94v-63.558c1.987-3.97 3.97-7.94 7.94-7.94zM561.644 436.391h91.348v-35.747h-91.348v35.747z" />
<glyph unicode="&#xe205;" glyph-name="shortcuts" d="M603.149 454.952c0 7.322 31.208 104.275-29.693 133.543-70.268 33.895-89.634 60.694-89.205 103.951 0-1.717-42.502-70.164-14.846-103.951 42.933-52.291 24.856-92.761 0-88.99-41.535 6.236-36.586 60.579-29.693 74.252-21.74 2.374-46.812-11.298-59.285-29.693-27.648-40.89 9.14-80.595 18.937-114.494v-26.583c-0.964-2.474-2.374-4.949-4.090-7.322-22.064-30.124-59.512 29.264-59.398 29.693-2.691-14.090-4.090-27.332-4.191-39.709v-4.949c0.758-58.755 28.834-98.46 67.689-119.656v-29.163h204.24v71.344c15.705 20.654 26.36 46.484 29.163 77.476 5.277 58.218 57.787 89.963 59.398 89.205-55.628 25.605-88.99-16.892-88.99-14.954zM582.164 280.406v-27.218h-161.19v161.19h161.19v-133.972z" />
<glyph unicode="&#xe301;" glyph-name="crop" d="M614.515 528.446l61.305 61.305-21.040 21.040-61.305-61.305h-143.722v61.391h-40.259v-61.305h-61.305v-40.259h61.305v-162.867h162.867v-61.305h40.259v61.305h61.305v40.259h-61.305v141.746h1.902zM449.754 507.403h101.562l-101.562-101.562v101.562zM470.784 384.797l101.562 101.477v-101.562l-101.562 0.092z" />
<glyph unicode="&#xe302;" glyph-name="rotateCkw" d="M667.213 588.237c0 3.61-2.918 6.374-6.528 6.298-2.534 0-4.762-1.459-5.76-3.533-0.307-0.23-0.691-0.461-0.998-0.922l-32.64-32.64c-28.8 26.88-69.197 44.16-109.44 44.16-86.4 0-155.366-69.12-155.366-153.6s70.963-153.6 157.363-153.6v55.757c-55.68 0-99.84 44.16-101.683 97.92 0 53.76 44.16 97.92 99.84 97.92 26.88 0 51.763-9.6 70.963-26.957l-30.72-30.72c-1.92 0-1.92-1.92-1.92-3.763 0-3.84 1.997-5.76 5.76-5.76h105.6c3.84 0 5.76 1.997 5.76 5.76l-0.23 103.68c0-0.077 0 0 0 0z" />
<glyph unicode="&#xe303;" glyph-name="gradient" d="M394.042 317.442l99.132 99.132c13.779-8.817 31.423-6.307 43.941 6.215s12.515 30.076 6.215 43.941l99.132 99.132c3.782 3.782 3.782 8.817 0 12.612s-10.082 2.518-12.612 0l-99.132-99.132c-13.779 8.817-31.423 6.307-43.941-6.215s-12.515-30.076-6.215-43.941l-99.132-99.132c-3.782-3.782-3.782-8.817 0-12.612s8.817-3.782 12.612 0zM498.678 461.322c7.382 7.382 19.356 7.382 26.744 0s7.382-19.356 0-26.744c-7.382-7.382-19.356-7.382-26.744 0s-7.382 19.356 0 26.744zM333.807 377.672l248.521 248.521c3.782 3.782 3.782 8.817 0 12.612-3.782 3.685-10.082 2.518-12.695-0.085l-248.429-248.429c-3.782-3.782-3.782-8.817 0-12.612s8.817-3.782 12.612 0zM690.193 518.235l-248.429-248.521c-3.782-3.782-3.782-8.817 0-12.612s8.817-3.782 12.612 0l248.521 248.521c3.782 3.782 3.782 8.817 0 12.612-3.877 3.782-10.18 2.518-12.695 0z" />
<glyph unicode="&#xe304;" glyph-name="hsl" d="M678.874 456.47h-133.174c-3.335 15.139-16.846 25.321-33.699 25.321s-28.65-11.802-33.699-25.321h-133.174c-5.043 0-8.47-3.335-8.47-8.47s3.335-8.47 8.47-8.47h133.174c3.335-15.139 16.846-25.321 33.699-25.321s28.65 11.802 33.699 25.321h133.174c5.043 0 8.47 3.335 8.47 8.47s-5.043 8.47-8.47 8.47zM512 429.438c-6.759 0-11.802 3.335-15.139 8.47-1.714 3.335-1.714 5.043-1.714 8.47 0 3.335 1.714 5.043 1.714 8.47 3.335 5.043 8.47 8.47 15.139 8.47 6.759 0 11.802-3.335 15.139-8.47 1.714-3.335 1.714-5.043 1.714-8.47 0-3.335-1.714-5.043-1.714-8.47-3.335-3.421-10.090-8.47-15.139-8.47zM678.874 537.379h-72.53c-3.335 15.139-16.846 25.321-33.699 25.321s-28.65-11.802-33.699-25.321h-193.817c-5.043 0-8.47-3.335-8.47-8.47 0-5.043 3.335-8.47 8.47-8.47h193.902c3.335-15.139 16.846-25.321 33.699-25.321s28.65 11.802 33.699 25.321h72.53c5.043 0 8.47 3.335 8.47 8.47-0.085 5.043-5.128 8.47-8.556 8.47zM572.728 510.356c-6.759 0-11.802 3.335-15.139 8.47-1.714 3.335-1.714 5.043-1.714 8.47s1.714 5.043 1.714 8.47c3.335 5.043 8.47 8.47 15.139 8.47s11.802-3.335 15.139-8.47c1.714-3.335 1.714-5.043 1.714-8.47s-1.714-5.043-1.714-8.47c-3.335-5.043-8.47-8.47-15.139-8.47zM678.874 375.47h-193.817c-3.335 15.139-16.846 25.321-33.699 25.321s-28.65-11.802-33.699-25.321h-72.53c-5.043 0-8.47-3.335-8.47-8.47 0-5.043 3.335-8.47 8.47-8.47h72.53c3.335-15.139 16.846-25.321 33.699-25.321s28.65 11.802 33.699 25.321h193.902c5.043 0 8.47 3.335 8.47 8.47-0.085 5.128-5.128 8.47-8.556 8.47zM451.272 348.524c-6.759 0-11.802 3.335-15.139 8.47-1.714 3.335-1.714 5.043-1.714 8.47s1.714 5.043 1.714 8.47c3.335 5.043 8.47 8.47 15.139 8.47s11.802-3.335 15.139-8.47c1.714-3.335 1.714-5.043 1.714-8.47s-1.714-5.043-1.714-8.47c-3.335-3.421-10.004-8.47-15.139-8.47z" />
<glyph unicode="&#xe305;" glyph-name="brightness" d="M347.127 472.819h22.896c12.365 0 22.896-10.62 22.896-22.985s-10.531-22.985-22.896-22.985h-22.896c-12.365 0-22.896 10.62-22.896 22.985s10.531 22.985 22.896 22.985zM396.498 364.738c8.787 8.881 24.641 8.881 33.518 0s8.787-24.819 0-33.612l-15.85-15.944c-8.787-8.881-24.641-8.881-33.518 0-8.787 8.881-8.787 24.819 0 33.612l15.85 15.944zM512.917 543.627c52.853 0 95.163-42.505 95.163-95.627s-42.317-95.627-95.163-95.627-95.252 42.505-95.252 95.627 44.054 95.627 95.252 95.627zM512.917 401.929c26.475 0 47.626 21.247 47.626 47.808s-21.153 47.808-47.626 47.808c-26.475 0-47.626-21.247-47.626-47.808s21.153-47.808 47.626-47.808zM512.917 329.29c12.365 0 22.896-10.62 22.896-22.985v-22.985c0-12.365-10.531-22.985-22.896-22.985s-22.896 10.62-22.896 22.985v22.985c-0.089 12.365 10.531 22.985 22.896 22.985zM629.239 364.738l15.85-15.944c8.787-8.881 8.787-24.819 0-33.612-8.787-8.881-24.641-8.881-33.518 0l-15.85 15.944c-8.787 8.881-8.787 24.819 0 33.612 10.62 8.881 24.73 8.881 33.518 0zM630.977 448c0 12.365 10.531 22.985 22.896 22.985h22.896c12.365 0 22.896-10.62 22.896-22.985s-10.531-22.985-22.896-22.985h-22.896c-12.276 0-22.896 10.62-22.896 22.985zM629.239 532.998c-8.787-8.881-24.641-8.881-33.518 0s-8.787 24.819 0 33.612l15.85 15.944c8.787 8.881 24.641 8.881 33.518 0 8.787-8.881 8.787-24.819 0-33.612l-15.85-15.944zM512.917 566.71c-12.365 0-22.896 10.62-22.896 22.985v23.077c0 12.365 10.531 22.985 22.896 22.985s22.896-10.62 22.896-22.985v-22.985c1.745-12.454-8.787-23.077-22.896-23.077zM396.498 532.998l-15.85 15.944c-8.787 8.881-8.787 24.819 0 33.612s24.641 8.881 33.518 0l15.85-15.944c8.787-8.881 8.787-24.819 0-33.612s-24.73-8.787-33.518 0z" />
<glyph unicode="&#xe307;" glyph-name="curves" d="M679.481 596.107c-2.008 9.891-13.828 15.84-23.723 13.828 0 0-5.954-2.008-11.824-3.941-21.704-7.874-82.983-31.606-122.461-80.967v84.916c0 5.954-3.941 9.891-9.891 9.891s-9.891-3.941-9.891-9.891v-116.511c-2.008-2.008-2.008-5.954-3.941-7.874-13.828-5.954-25.655-19.782-25.655-35.536 0-9.891 3.941-19.782 11.824-27.656-29.587-71.169-124.394-98.747-126.403-98.747-9.891-2.008-15.84-13.828-13.828-23.723 2.008-7.874 9.891-13.828 19.782-13.828 2.008 0 3.941 0 5.954 0 3.941 2.008 86.921 25.655 132.357 88.846v-88.846c0-5.954 3.941-9.891 9.891-9.891s9.891 3.941 9.891 9.891v124.394c0 2.008 0 2.008 2.008 3.941 15.84 3.941 29.587 17.774 29.587 35.536 0 11.824-3.941 19.782-11.824 27.656 25.655 57.251 92.794 84.916 116.511 92.794 3.941 2.008 3.941 2.008 5.954 2.008v0c2.008 0 2.008 0 2.008 0 11.652 2.008 17.602 13.828 13.666 23.723zM513.597 426.296c-13.828 0-23.723 9.891-23.723 23.723s9.891 23.723 23.723 23.723 23.723-9.891 23.723-23.723-9.977-23.723-23.723-23.723z" />
<glyph unicode="&#xe308;" glyph-name="sepia" d="M632.99 405.569h-7.191v177.011c0 14.463-12.605 27.071-27.071 27.071h-175.233c-14.463 0-27.071-12.605-27.071-27.071v-177.011h-7.272c-10.827 0-19.877-9.050-19.877-19.877v0c0-10.827 9.050-19.877 19.877-19.877h92.143l-68.623-46.958c-9.050-5.414-10.827-16.241-5.414-25.293 3.636-5.414 9.050-7.191 14.463-7.191 3.636 0 7.191 1.778 10.827 3.636l64.985 43.32v-28.931c0-10.827 7.191-18.018 18.018-18.018s18.018 7.191 18.018 18.018v30.709l64.985-45.18c3.636-1.778 7.191-3.636 10.827-3.636 5.414 0 10.827 3.636 14.463 7.191 5.414 9.050 3.636 19.877-5.414 25.293l-68.623 46.958h84.871c10.827 0 19.877 9.050 19.877 19.877v0c-1.697 10.908-10.746 19.958-21.574 19.958zM512 571.739c43.32 0 77.677-34.347 77.677-77.677s-34.347-77.677-77.677-77.677-77.677 34.347-77.677 77.677 34.347 77.677 77.677 77.677zM549.904 494.069c0-20.932-16.966-37.904-37.904-37.904s-37.904 16.966-37.904 37.904c0 20.932 16.966 37.904 37.904 37.904s37.904-16.966 37.904-37.904z" />
<glyph unicode="&#xe309;" glyph-name="temperature" d="M549.349 425.172l-3.244 1.628v68.498h26.084v13.085h-26.084v37.541h26.084v11.469h-26.084v37.541h26.084v11.469h-26.084v4.873c0 17.956-14.711 32.669-32.669 32.669s-32.669-14.711-32.669-32.669v-184.374l-3.244-1.628c-32.669-14.711-55.509-47.284-55.509-83.209 0-50.638 40.797-89.806 89.806-89.806s89.806 40.797 89.806 89.806c3.244 35.729-19.584 68.405-52.253 83.116zM513.432 286.455c-31.053 0-55.509 24.457-55.509 55.509 0 27.7 19.584 48.914 44.041 53.879v96.196c0 4.873 4.873 9.838 9.838 9.838 4.873 0 9.838-4.873 9.838-9.838v-94.678c26.084-4.873 44.041-27.7 44.041-53.879 3.244-32.571-21.212-57.027-52.253-57.027z" />
<glyph unicode="&#xe310;" glyph-name="grayscale" d="M378.88 581.12v-266.24h266.24v266.24h-266.24zM629.421 330.579h-117.421v234.849h117.421v-234.849z" />
<glyph unicode="&#xe311;" glyph-name="sharpen" d="M512 499.638l81.977-138.973h-160.352l40.991 69.488 37.391 69.488zM512 570.893l-142.502-245.786h285.012l-142.502 245.786z" />
<glyph unicode="&#xe312;" glyph-name="blur" d="M616.134 411.155l-104.458 200.685-104.458-200.685c-20.461-69.69 47.155-126.995 104.458-126.995 57.382 2.079 126.995 55.306 104.458 126.995zM509.677 308.698c-2.079 0-2.079 0-4.077 0 0 0-2.079 0-6.154 0h-2.079c-2.079 0-2.079 0-4.077 0s-6.154 2.079-10.23 2.079c-2.079 0-4.077 2.079-4.077 2.079-2.079 0-4.077 2.079-6.154 2.079-4.077 2.079-6.154 4.077-10.23 6.154s-6.154 6.154-10.23 8.154c-4.077 2.079-6.154 6.154-8.154 10.23-2.079 4.077-6.154 6.154-8.154 10.23-2.079 4.077-4.077 8.154-6.154 10.23-2.079 4.077-2.079 8.154-4.077 10.23 0 2.079 0 4.077-2.079 4.077 0 2.079 0 4.077 0 4.077 0 2.079 0 6.154 0 8.154 0 2.079 0 4.077 0 6.154 0 4.077 0 6.154 0 6.154s0-2.079 0-6.154c0-2.079 0-4.077 2.079-6.154 0-2.079 2.079-4.077 2.079-8.154 0-2.079 2.079-2.079 2.079-4.077 0-2.079 2.079-2.079 2.079-4.077 2.079-2.079 4.077-6.154 6.154-8.154 2.079-2.079 4.077-6.154 6.154-8.154 2.079-2.079 6.154-4.077 8.154-6.154 2.079-2.079 6.154-4.077 8.154-6.154s6.154-2.079 8.154-4.077c4.077 0 6.154-2.079 8.154-2.079 2.079 0 2.079 0 4.077 0s2.079 0 4.077 0 4.077 0 6.154 0h2.079c2.079 0 2.079 0 2.079 0 4.077 0 6.154 0 6.154 0 10.23 0 16.384-6.154 18.463-14.305 5.99-4.154-0.154-12.384-10.394-12.384z" />
<glyph unicode="&#xe314;" glyph-name="invert" d="M386.88 573.12v-250.24h250.24v250.24h-250.24zM622.364 337.636l-32.398 32.398h-154.487v154.487l-32.398 32.398h220.8v-219.359h-1.509zM433.964 526.036l44.191-42.736h67.698v-69.147l44.191-42.674v154.56zM545.853 414.147l-67.698 69.147v-69.147z" />
</font>
</defs>
</svg>
